<svg xmlns="http://www.w3.org/2000/svg" width="1200" height="630" viewBox="0 0 1200 630" font-family="ui-sans-serif, -apple-system, BlinkMacSystemFont, 'Segoe UI', Roboto, Helvetica, Arial, sans-serif">
  <rect width="1200" height="630" fill="#0a0a0a"/>
  <!-- subtle card border, shadcn style -->
  <rect x="0.5" y="0.5" width="1199" height="629" fill="none" stroke="#1c1c1f" stroke-width="1"/>
  <!-- faint baseline through the waveform -->
  <line x1="140" y1="232" x2="1060" y2="232" stroke="#18181b" stroke-width="1"/>
  <!-- waveform -->
  <rect x="143.4" y="223.0" width="6.8" height="18.0" rx="3.4" fill="#fafafa"/>
<rect x="156.9" y="220.9" width="6.8" height="22.2" rx="3.4" fill="#fafafa"/>
<rect x="170.4" y="215.1" width="6.8" height="33.8" rx="3.4" fill="#fafafa"/>
<rect x="184.0" y="210.9" width="6.8" height="42.3" rx="3.4" fill="#fafafa"/>
<rect x="197.5" y="207.7" width="6.8" height="48.6" rx="3.4" fill="#fafafa"/>
<rect x="211.0" y="205.3" width="6.8" height="53.4" rx="3.4" fill="#fafafa"/>
<rect x="224.6" y="203.5" width="6.8" height="57.0" rx="3.4" fill="#fafafa"/>
<rect x="238.1" y="202.1" width="6.8" height="59.8" rx="3.4" fill="#fafafa"/>
<rect x="251.6" y="201.2" width="6.8" height="61.5" rx="3.4" fill="#fafafa"/>
<rect x="265.1" y="201.0" width="6.8" height="62.1" rx="3.4" fill="#fafafa"/>
<rect x="278.7" y="201.4" width="6.8" height="61.3" rx="3.4" fill="#fafafa"/>
<rect x="292.2" y="202.3" width="6.8" height="59.3" rx="3.4" fill="#fafafa"/>
<rect x="305.7" y="203.6" width="6.8" height="56.9" rx="3.4" fill="#fafafa"/>
<rect x="319.3" y="204.4" width="6.8" height="55.2" rx="3.4" fill="#fafafa"/>
<rect x="332.8" y="204.3" width="6.8" height="55.4" rx="3.4" fill="#fafafa"/>
<rect x="346.3" y="202.6" width="6.8" height="58.7" rx="3.4" fill="#fafafa"/>
<rect x="359.9" y="199.2" width="6.8" height="65.7" rx="3.4" fill="#fafafa"/>
<rect x="373.4" y="194.1" width="6.8" height="75.8" rx="3.4" fill="#fafafa"/>
<rect x="386.9" y="188.1" width="6.8" height="87.8" rx="3.4" fill="#fafafa"/>
<rect x="400.4" y="182.1" width="6.8" height="99.8" rx="3.4" fill="#fafafa"/>
<rect x="414.0" y="177.3" width="6.8" height="109.5" rx="3.4" fill="#fafafa"/>
<rect x="427.5" y="174.4" width="6.8" height="115.2" rx="3.4" fill="#fafafa"/>
<rect x="441.0" y="174.0" width="6.8" height="115.9" rx="3.4" fill="#fafafa"/>
<rect x="454.6" y="176.1" width="6.8" height="111.7" rx="3.4" fill="#fafafa"/>
<rect x="468.1" y="180.1" width="6.8" height="103.7" rx="3.4" fill="#fafafa"/>
<rect x="481.6" y="185.2" width="6.8" height="93.7" rx="3.4" fill="#fafafa"/>
<rect x="495.1" y="190.3" width="6.8" height="83.5" rx="3.4" fill="#fafafa"/>
<rect x="508.7" y="194.6" width="6.8" height="74.7" rx="3.4" fill="#fafafa"/>
<rect x="522.2" y="197.9" width="6.8" height="68.2" rx="3.4" fill="#fafafa"/>
<rect x="535.7" y="199.9" width="6.8" height="64.2" rx="3.4" fill="#fafafa"/>
<rect x="549.3" y="201.0" width="6.8" height="62.0" rx="3.4" fill="#3f3f46"/>
<rect x="562.8" y="201.5" width="6.8" height="61.1" rx="3.4" fill="#3f3f46"/>
<rect x="576.3" y="201.6" width="6.8" height="60.8" rx="3.4" fill="#3f3f46"/>
<rect x="589.9" y="201.4" width="6.8" height="61.2" rx="3.4" fill="#3f3f46"/>
<rect x="603.4" y="200.7" width="6.8" height="62.6" rx="3.4" fill="#3f3f46"/>
<rect x="616.9" y="199.1" width="6.8" height="65.9" rx="3.4" fill="#3f3f46"/>
<rect x="630.4" y="196.2" width="6.8" height="71.5" rx="3.4" fill="#3f3f46"/>
<rect x="644.0" y="192.1" width="6.8" height="79.8" rx="3.4" fill="#3f3f46"/>
<rect x="657.5" y="186.9" width="6.8" height="90.1" rx="3.4" fill="#3f3f46"/>
<rect x="671.0" y="181.5" width="6.8" height="101.0" rx="3.4" fill="#3f3f46"/>
<rect x="684.6" y="176.7" width="6.8" height="110.5" rx="3.4" fill="#3f3f46"/>
<rect x="698.1" y="173.6" width="6.8" height="116.7" rx="3.4" fill="#3f3f46"/>
<rect x="711.6" y="172.9" width="6.8" height="118.2" rx="3.4" fill="#3f3f46"/>
<rect x="725.1" y="174.9" width="6.8" height="114.3" rx="3.4" fill="#3f3f46"/>
<rect x="738.7" y="179.1" width="6.8" height="105.7" rx="3.4" fill="#3f3f46"/>
<rect x="752.2" y="184.9" width="6.8" height="94.1" rx="3.4" fill="#3f3f46"/>
<rect x="765.7" y="191.2" width="6.8" height="81.7" rx="3.4" fill="#3f3f46"/>
<rect x="779.3" y="196.7" width="6.8" height="70.6" rx="3.4" fill="#3f3f46"/>
<rect x="792.8" y="200.7" width="6.8" height="62.6" rx="3.4" fill="#3f3f46"/>
<rect x="806.3" y="202.7" width="6.8" height="58.6" rx="3.4" fill="#3f3f46"/>
<rect x="819.9" y="202.8" width="6.8" height="58.3" rx="3.4" fill="#3f3f46"/>
<rect x="833.4" y="201.6" width="6.8" height="60.8" rx="3.4" fill="#3f3f46"/>
<rect x="846.9" y="199.6" width="6.8" height="64.7" rx="3.4" fill="#3f3f46"/>
<rect x="860.4" y="197.6" width="6.8" height="68.7" rx="3.4" fill="#3f3f46"/>
<rect x="874.0" y="196.1" width="6.8" height="71.9" rx="3.4" fill="#3f3f46"/>
<rect x="887.5" y="195.1" width="6.8" height="73.7" rx="3.4" fill="#3f3f46"/>
<rect x="901.0" y="194.8" width="6.8" height="74.4" rx="3.4" fill="#3f3f46"/>
<rect x="914.6" y="194.9" width="6.8" height="74.1" rx="3.4" fill="#3f3f46"/>
<rect x="928.1" y="195.4" width="6.8" height="73.2" rx="3.4" fill="#3f3f46"/>
<rect x="941.6" y="196.2" width="6.8" height="71.6" rx="3.4" fill="#3f3f46"/>
<rect x="955.1" y="197.5" width="6.8" height="69.0" rx="3.4" fill="#3f3f46"/>
<rect x="968.7" y="199.6" width="6.8" height="64.9" rx="3.4" fill="#3f3f46"/>
<rect x="982.2" y="202.6" width="6.8" height="58.7" rx="3.4" fill="#3f3f46"/>
<rect x="995.7" y="206.7" width="6.8" height="50.5" rx="3.4" fill="#3f3f46"/>
<rect x="1009.3" y="211.8" width="6.8" height="40.4" rx="3.4" fill="#3f3f46"/>
<rect x="1022.8" y="217.5" width="6.8" height="29.1" rx="3.4" fill="#3f3f46"/>
<rect x="1036.3" y="223.0" width="6.8" height="18.0" rx="3.4" fill="#3f3f46"/>
<rect x="1049.9" y="223.0" width="6.8" height="18.0" rx="3.4" fill="#3f3f46"/>
  <!-- playhead -->
  <line x1="544.8" y1="143" x2="544.8" y2="321" stroke="#fafafa" stroke-width="2" opacity="0.9"/>
  <!-- wordmark -->
  <text x="600" y="408" text-anchor="middle" font-size="78" font-weight="700" letter-spacing="-2" fill="#fafafa">WaveformPlayer</text>
  <!-- tagline -->
  <text x="600" y="458" text-anchor="middle" font-size="29" font-weight="400" fill="#a1a1aa">Zero-config audio waveforms for the web</text>
  <!-- meta row (mono) -->
  <text x="600" y="536" text-anchor="middle" font-size="22" letter-spacing="0.5" font-family="ui-monospace, SFMono-Regular, Menlo, Consolas, monospace" fill="#71717a">~9KB gzipped &#160;&#183;&#160; 0 dependencies &#160;&#183;&#160; TypeScript &#160;&#183;&#160; MIT</text>
</svg>
